<?xml version="1.0" encoding="UTF-8" standalone="no"?>
<svg
   xmlns:dc="http://purl.org/dc/elements/1.1/"
   xmlns:cc="http://creativecommons.org/ns#"
   xmlns:rdf="http://www.w3.org/1999/02/22-rdf-syntax-ns#"
   xmlns:svg="http://www.w3.org/2000/svg"
   xmlns="http://www.w3.org/2000/svg"
   xmlns:sodipodi="http://sodipodi.sourceforge.net/DTD/sodipodi-0.dtd"
   xmlns:inkscape="http://www.inkscape.org/namespaces/inkscape"
   fill="#000000"
   width="24"
   height="24"
   viewBox="0 0 0.42 0.42"
   role="img"
   focusable="false"
   aria-hidden="true"
   version="1.1"
   id="svg4"
   sodipodi:docname="monologo.svg"
   inkscape:export-filename="L:\Downloads\rocket-chat.png"
   inkscape:export-xdpi="96"
   inkscape:export-ydpi="96"
   inkscape:version="1.0.1 (3bc2e813f5, 2020-09-07)">
  <metadata
     id="metadata10">
    <rdf:RDF>
      <cc:Work
         rdf:about="">
        <dc:format>image/svg+xml</dc:format>
        <dc:type
           rdf:resource="http://purl.org/dc/dcmitype/StillImage" />
        <dc:title></dc:title>
      </cc:Work>
    </rdf:RDF>
  </metadata>
  <defs
     id="defs8" />
  <sodipodi:namedview
     pagecolor="#ffffff"
     bordercolor="#666666"
     borderopacity="1"
     objecttolerance="10"
     gridtolerance="10"
     guidetolerance="10"
     inkscape:pageopacity="0"
     inkscape:pageshadow="2"
     inkscape:window-width="1920"
     inkscape:window-height="1147"
     id="namedview6"
     showgrid="false"
     inkscape:zoom="30.62"
     inkscape:cx="14.560964"
     inkscape:cy="12.48018"
     inkscape:window-x="-8"
     inkscape:window-y="-8"
     inkscape:window-maximized="1"
     inkscape:current-layer="svg4" />
  <path
     id="path2"
     style="stroke-width:0.0318734"
     d="m 0.06876358,0.04355007 c -0.03067265,0.0012801 -0.0510464,0.01293319 -0.0510464,0.01293319 0,0 0.04853941,0.0398732 0.04064409,0.0748323 -0.02171935,0.0215487 -0.03350188,0.0475248 -0.03350188,0.0745749 v 5.1475e-4 c 0,0.02705 0.01177814,0.0530306 0.03350188,0.0745749 0.0078953,0.0349623 -0.04064409,0.0748109 -0.04064409,0.0748109 0,0 0.05218438,0.0298503 0.11515467,-6.649e-4 0.0117852,-0.006333 0.0229114,-0.0143901 0.0324295,-0.0232926 0.0153395,0.002686 0.0312078,0.004054 0.0472501,0.004054 0.0480283,0 0.0935515,-0.0121664 0.1281951,-0.0342955 0.0179399,-0.0114646 0.0322019,-0.0250329 0.0423814,-0.0404082 0.011336,-0.0171191 0.0170727,-0.0355785 0.0170727,-0.0547784 v -5.1475e-4 c 0,-0.0192087 -0.005738,-0.0376555 -0.0170727,-0.0547784 C 0.37295035,0.13574446 0.35868635,0.12216986 0.34074655,0.11070396 0.30610425,0.08857673 0.26057665,0.0764085 0.21255145,0.0764085 c -0.0160416,0 -0.0319138,0.0013679 -0.0472501,0.0040537 C 0.15578735,0.0715553 0.14465835,0.06350305 0.13287185,0.0571696 0.10925805,0.04572446 0.08716679,0.042782 0.06876358,0.04355007 Z m 0.14378783,0.06001169 c 0.0889292,0 0.16098919,0.0460384 0.16098919,0.10284347 0,0.0568009 -0.07206,0.10282203 -0.16098919,0.10282204 -0.0198017,0 -0.0388038,-0.002241 -0.0563226,-0.006413 -0.0178068,0.0214188 -0.0569623,0.0511476 -0.09501493,0.0415235 0.01237697,-0.0132932 0.03071306,-0.0357053 0.02678861,-0.072709 -0.0228087,-0.017744 -0.03648316,-0.0404719 -0.03648316,-0.0652235 -4.45e-6,-0.0568096 0.07209986,-0.10284309 0.16103208,-0.10284351 z m -0.0744033,0.0847628 c -0.0118141,0 -0.0213837,0.009573 -0.0213837,0.0213837 0,0.0118122 0.009571,0.0213837 0.0213837,0.0213837 0.0118122,0 0.0214052,-0.009573 0.0214052,-0.0213837 0,-0.0118122 -0.009594,-0.0213837 -0.0214052,-0.0213837 z m 0.0743819,0 c -0.0118141,0 -0.0213837,0.00957 -0.0213837,0.0213837 0,0.0118154 0.00957,0.0214052 0.0213837,0.0214052 0.0118154,0 0.0213837,-0.00959 0.0213837,-0.0214052 0,-0.0118141 -0.009568,-0.0213837 -0.0213837,-0.0213837 z m 0.0743819,0 c -0.0118141,0 -0.0214052,0.00957 -0.0214052,0.0213837 0,0.0118154 0.009591,0.0214052 0.0214052,0.0214052 0.0118141,0 0.0213837,-0.00959 0.0213837,-0.0214052 0,-0.0118141 -0.00957,-0.0213837 -0.0213837,-0.0213837 z" />
</svg>
